<svg width="923" height="287" viewBox="0 0 923 287" fill="none" xmlns="http://www.w3.org/2000/svg">
<g clip-path="url(#clip0_97_3)">
<mask id="mask0_97_3" style="mask-type:luminance" maskUnits="userSpaceOnUse" x="0" y="0" width="923" height="287">
<path d="M923 0H0V286.7H923V0Z" fill="white"/>
</mask>
<g mask="url(#mask0_97_3)">
<path d="M427.677 109.156L449.583 166.494C454.921 180.402 459.493 194.309 462.919 204.406C466.54 194.309 471.493 182.305 477.194 168.398L500.436 111.06H500.817L524.059 168.398C529.774 182.305 534.727 194.309 538.335 204.406C541.765 194.309 546.337 180.402 551.667 166.494L573.598 109.156H593.41L538.361 248.602H537.98L508.448 174.116C505.783 167.446 502.738 160.019 500.64 153.543C498.351 160.032 495.306 167.636 492.827 174.116L463.291 248.602H462.91L407.865 109.156H427.677Z" fill="white"/>
<path d="M624.668 106.867H625.049L688.296 246.313H668.865L655.355 215.855H594.184L580.852 246.335H561.421L624.668 106.867ZM648.672 200.784C639.337 179.83 632.29 163.444 624.88 144.013C617.258 163.444 610.211 179.83 600.876 200.784H648.672Z" fill="white"/>
<path d="M753.827 106.867C793.075 106.867 824.125 137.537 824.125 177.732C824.125 213.165 800.502 240.979 767.734 247.265C783.74 260.982 806.792 270.126 825.648 270.126C832.318 270.126 840.317 269.365 845.27 268.033V284.414C840.892 285.747 832.318 286.698 824.125 286.698C796.691 286.698 765.641 271.268 746.4 248.221C710.202 244.79 683.533 215.453 683.533 177.71C683.533 138.108 714.013 106.867 753.827 106.867ZM753.827 231.644C783.55 231.644 805.455 208.787 805.455 177.732C805.455 146.677 783.55 123.82 753.827 123.82C724.105 123.82 702.013 146.682 702.013 177.732C702.013 208.783 724.109 231.644 753.827 231.644Z" fill="white"/>
<path d="M861.263 124.582V170.115H913.271V185.545H861.263V246.314H842.978V109.156H923.004V124.582H861.263Z" fill="white"/>
<path d="M457.062 55.1776L410.343 4.50108L409.828 4.0685H407.852V83.2735H420.634V33.4059L467.759 84.5237H469.844V5.31H457.062V55.1776ZM513.249 4.05553L477.319 83.2735H491.01L498.321 66.5587H530.055L537.469 83.2735H551.156L515.252 4.05553H513.249ZM503.196 55.5539C507.254 46.4179 510.654 38.5363 514.222 29.5993C517.64 38.3416 521.049 46.2751 525.175 55.5539H503.196ZM542.128 16.5224H565.003V83.2735H577.785V16.5224H600.768V5.31H542.137L542.128 16.5224ZM612.807 83.2086H625.585V5.24944H612.807V83.2086ZM677.547 4.04688C655.161 4.04688 637.624 21.722 637.624 44.2766C637.624 67.2032 654.789 84.5064 677.547 84.5064C700.304 84.5064 717.469 67.2032 717.469 44.2766C717.478 21.7307 699.941 4.05553 677.555 4.05553L677.547 4.04688ZM677.547 72.4634C661.883 72.4634 650.51 60.6108 650.51 44.2809C650.51 27.9511 661.883 16.0985 677.547 16.0985C693.21 16.0985 704.479 27.9511 704.479 44.2809C704.479 60.6108 693.163 72.472 677.555 72.472L677.547 72.4634ZM776.607 55.1603L729.888 4.4881L729.374 4.05553H727.392V83.2735H740.175V33.4059L787.292 84.5237H789.377V5.31H776.594L776.607 55.1603ZM832.682 4.05553L796.752 83.2735H810.443L817.758 66.5587H849.492L856.906 83.2735H870.593L834.689 4.05553H832.682ZM822.633 55.5539C826.682 46.4309 830.082 38.5493 833.66 29.5993C837.081 38.3503 840.486 46.2794 844.612 55.5539H822.633ZM890.617 72.0568V5.31H877.839V83.2735H923V72.0568H890.617Z" fill="white"/>
<path d="M153.033 286.7L146.778 279.207C145.913 278.165 125.482 253.253 125.482 216.163C125.482 194.435 132.481 172.997 143.629 152.639C137.429 142.661 130.521 133.141 122.96 124.15C115.234 167.628 114.529 200.647 114.525 201.023L114.317 212.123L103.788 208.615C-11.0783 170.306 0.23363 18.1942 0.359078 16.6586L1.44917 3.625L12.6962 10.3343C16.5288 12.6269 68.5333 44.097 113.669 89.6042C123.622 53.3282 144.369 15.1705 145.346 13.4099L152.7 0L159.751 13.5786C160.698 15.3954 180.947 54.6086 191.762 90.3309C237.053 44.4301 289.576 12.6399 293.426 10.3343L304.673 3.625L305.759 16.6586C305.884 18.1942 317.196 170.306 202.334 208.593L191.238 212.292L191.597 200.612C191.597 200.271 192.419 169.644 183.188 124.146C175.617 133.147 168.701 142.679 162.494 152.67C173.632 173.027 180.636 194.461 180.636 216.181C180.636 253.3 160.184 278.187 159.31 279.229L153.033 286.7ZM153.055 170.064C145.999 185.178 141.808 200.682 141.808 216.163C141.808 234.725 148.028 249.844 153.055 259.036C158.09 249.853 164.302 234.73 164.302 216.163C164.302 200.682 160.097 185.174 153.055 170.064ZM16.3039 32.0108C16.6629 66.9111 24.9771 157.233 98.7143 189.21C100.406 162.173 103.931 135.283 109.265 108.724C75.8093 73.2484 35.8694 44.9578 16.3039 32.0108ZM196.594 109.01C204.929 145.368 207.188 173.87 207.75 189.037C281.288 156.896 289.507 66.8203 289.819 32.0108C270.21 44.9881 230.131 73.3955 196.594 109.01ZM126.975 103.719C136.46 114.199 145.175 125.351 153.05 137.088C160.797 125.534 169.36 114.547 178.672 104.212C172.685 80.4984 160.249 52.303 152.35 35.5752C144.481 51.7839 132.369 79.006 127.178 102.802C127.109 103.109 127.044 103.412 126.975 103.719Z" fill="#00ACA6"/>
</g>
</g>
<defs>
<clipPath id="clip0_97_3">
<rect width="923" height="287" fill="white"/>
</clipPath>
</defs>
</svg>
